<?xml version="1.0" encoding="UTF-8"?>
<svg xmlns="http://www.w3.org/2000/svg" xmlns:xlink="http://www.w3.org/1999/xlink" width="1440pt" height="809.999993pt" viewBox="0 0 1440 809.999993" version="1.2">
<defs>
<clipPath id="clip1">
  <path d="M 617.535156 244 L 833 244 L 833 585 L 617.535156 585 Z M 617.535156 244 "/>
</clipPath>
<clipPath id="clip2">
  <path d="M 675 243 L 833.242188 243 L 833.242188 442 L 675 442 Z M 675 243 "/>
</clipPath>
</defs>
<g id="surface1">
<g clip-path="url(#clip1)" clip-rule="nonzero">
<path style=" stroke:none;fill-rule:nonzero;fill:rgb(97.24884%,63.919067%,83.918762%);fill-opacity:1;" d="M 832.996094 352.882812 C 832.996094 293.207031 784.757812 244.828125 725.25 244.828125 C 665.75 244.828125 617.507812 293.207031 617.507812 352.882812 C 617.507812 402.835938 651.304688 444.863281 697.210938 457.242188 L 697.210938 492.578125 L 649.890625 492.578125 L 649.890625 548.824219 L 697.210938 548.824219 L 697.210938 585.035156 L 753.292969 585.035156 L 753.292969 548.824219 L 800.609375 548.824219 L 800.609375 492.578125 L 753.292969 492.578125 L 753.292969 457.242188 C 799.199219 444.863281 832.996094 402.835938 832.996094 352.882812 "/>
</g>
<g clip-path="url(#clip2)" clip-rule="nonzero">
<path style=" stroke:none;fill-rule:nonzero;fill:rgb(58.81958%,19.999695%,61.959839%);fill-opacity:1;" d="M 734.457031 243.097656 C 717.570312 243.097656 701.671875 247.363281 687.765625 254.863281 C 686.28125 257.804688 667.707031 265.765625 679.875 290.320312 C 686.648438 303.984375 682.195312 292.480469 694.140625 302.589844 C 706.152344 312.757812 722.277344 315.375 736.417969 321.375 C 747.769531 326.1875 758.957031 333.304688 765.425781 344.171875 C 772.234375 355.617188 773.609375 368.882812 772.125 381.945312 C 770.734375 394.210938 767.121094 406.429688 757.75 415.039062 C 746.523438 425.363281 730.75 430.339844 715.761719 431.375 C 706.5625 432.007812 696.824219 431.457031 687.578125 429.238281 C 701.523438 436.800781 717.488281 441.101562 734.457031 441.101562 C 788.976562 441.101562 833.171875 396.777344 833.171875 342.097656 C 833.171875 287.425781 788.976562 243.097656 734.457031 243.097656 "/>
</g>
<path style=" stroke:none;fill-rule:nonzero;fill:rgb(58.81958%,19.999695%,61.959839%);fill-opacity:1;" d="M 793.738281 294.632812 C 787.089844 281.964844 779.0625 267.570312 765.199219 261.910156 C 758.164062 259.039062 749.789062 257.992188 742.261719 257.492188 C 734.289062 256.972656 726.386719 257.78125 718.769531 260.222656 C 717.140625 260.742188 715.570312 261.371094 714.039062 262.097656 C 712.820312 261.492188 711.332031 261.546875 709.984375 262.777344 C 708.519531 264.109375 707.191406 265.601562 705.953125 267.195312 C 703.398438 269.257812 685.488281 263.097656 678.800781 294.765625 C 674.308594 316.019531 685.941406 314.964844 683.957031 332.476562 C 682.054688 344.21875 680.25 346.871094 680.054688 349.082031 C 679.667969 353.519531 684.109375 354.738281 688.289062 355.238281 C 688.683594 356.175781 688.890625 356.433594 689.261719 357.375 C 689.933594 359.113281 690.15625 360.167969 689.867188 361.644531 C 688.511719 362.675781 688.402344 364.925781 689.132812 366.167969 C 689.398438 366.625 691.050781 368.8125 693.851562 367.6875 C 690.335938 368.699219 690.625 370.828125 691.050781 371.820312 C 691.1875 372.148438 691.40625 372.554688 691.671875 372.988281 C 695.078125 376.144531 695.582031 377.285156 696.761719 381.152344 C 697.019531 382 696.921875 385.234375 699.390625 388.433594 C 704.992188 397.289062 729.625 387.898438 737.300781 385.09375 C 744.011719 382.644531 758.265625 385.75 754.46875 417.808594 C 757.410156 416.867188 773.265625 400.242188 776.136719 399.113281 C 776.894531 398.816406 779.328125 367.332031 782.722656 363.125 C 782.867188 362.964844 783 362.804688 783.117188 362.636719 C 783.804688 361.78125 784.496094 360.929688 785.191406 360.121094 C 790.183594 354.304688 794.046875 348.058594 796.792969 340.867188 C 802.542969 325.804688 801.171875 308.8125 793.738281 294.632812 "/>
<path style=" stroke:none;fill-rule:nonzero;fill:rgb(58.81958%,19.999695%,61.959839%);fill-opacity:1;" d="M 754.46875 425.683594 C 754.46875 425.683594 739.433594 435.359375 724.472656 455.714844 C 719.402344 462.617188 700.28125 485.023438 709.3125 530.316406 C 716.238281 565.03125 741.671875 581.175781 741.671875 581.175781 C 741.671875 581.175781 700.617188 549.207031 716.558594 492.046875 C 732.496094 434.886719 795.054688 443.347656 819.078125 393.097656 L 754.46875 425.683594 "/>
<path style=" stroke:none;fill-rule:nonzero;fill:rgb(100%,100%,100%);fill-opacity:1;" d="M 679.972656 290.308594 C 679.972656 290.308594 680 290.503906 680.054688 290.878906 C 680.113281 291.25 680.15625 291.816406 680.300781 292.527344 C 680.613281 293.933594 681.175781 296 682.4375 298.386719 C 683.699219 300.769531 685.625 303.441406 688.207031 306.171875 C 690.773438 308.921875 694.035156 311.667969 697.714844 314.496094 C 701.398438 317.328125 705.570312 320.175781 710.035156 323.101562 C 714.523438 326.015625 719.257812 329.089844 724.152344 332.273438 C 729.019531 335.515625 734.039062 338.910156 738.949219 342.640625 C 743.859375 346.359375 748.699219 350.382812 753.085938 354.902344 C 755.269531 357.160156 757.355469 359.53125 759.234375 362.054688 C 761.097656 364.582031 762.769531 367.253906 764.148438 370.050781 C 766.945312 375.628906 768.300781 381.8125 768.203125 387.75 C 768.226562 388.492188 768.125 389.226562 768.089844 389.964844 C 768.050781 390.699219 767.996094 391.425781 767.871094 392.144531 C 767.769531 392.867188 767.664062 393.582031 767.5625 394.296875 C 767.40625 395 767.257812 395.703125 767.105469 396.394531 C 766.96875 397.097656 766.789062 397.777344 766.578125 398.453125 C 766.386719 399.125 766.1875 399.796875 765.992188 400.464844 C 765.519531 401.769531 765.082031 403.074219 764.558594 404.320312 C 762.488281 409.3125 759.898438 413.730469 757.296875 417.632812 C 754.625 421.492188 751.996094 424.898438 749.515625 427.785156 C 747.046875 430.683594 744.800781 433.125 742.894531 435.082031 C 741.023438 437.074219 739.464844 438.546875 738.429688 439.574219 C 737.382812 440.597656 736.824219 441.140625 736.824219 441.140625 L 736.691406 441 C 736.691406 441 737.238281 440.449219 738.265625 439.410156 C 739.289062 438.367188 740.824219 436.871094 742.65625 434.855469 C 744.53125 432.875 746.734375 430.40625 749.148438 427.476562 C 751.578125 424.566406 754.140625 421.132812 756.734375 417.257812 C 759.257812 413.339844 761.75 408.929688 763.71875 403.976562 C 765.6875 399.042969 767.019531 393.507812 767.082031 387.734375 C 767.109375 381.972656 765.734375 376.027344 762.957031 370.644531 C 761.589844 367.945312 759.9375 365.371094 758.085938 362.921875 C 756.226562 360.480469 754.15625 358.1875 751.984375 355.988281 C 747.617188 351.617188 742.777344 347.71875 737.863281 344.105469 C 732.9375 340.496094 727.929688 337.152344 723.046875 333.960938 C 718.191406 330.726562 713.425781 327.695312 709.007812 324.648438 C 704.582031 321.613281 700.441406 318.65625 696.773438 315.710938 C 693.09375 312.777344 689.925781 309.8125 687.390625 306.921875 C 684.847656 304.042969 682.976562 301.207031 681.832031 298.691406 C 680.667969 296.175781 680.179688 294.03125 679.964844 292.566406 C 679.863281 291.839844 679.859375 291.277344 679.824219 290.902344 C 679.796875 290.523438 679.78125 290.332031 679.78125 290.332031 L 679.972656 290.308594 "/>
<path style=" stroke:none;fill-rule:nonzero;fill:rgb(58.81958%,19.999695%,61.959839%);fill-opacity:1;" d="M 740.300781 434.96875 C 738.367188 435.9375 709.386719 435.324219 705.523438 488.675781 C 705.523438 488.675781 708.421875 446.59375 740.300781 439.8125 C 772.175781 433.03125 740.300781 434.96875 740.300781 434.96875 "/>
<path style=" stroke:none;fill-rule:nonzero;fill:rgb(58.81958%,19.999695%,61.959839%);fill-opacity:1;" d="M 773.875 431.011719 C 773.875 431.011719 716.71875 462.335938 715.109375 513.039062 C 715.109375 513.039062 713.894531 491.5625 739.054688 467.339844 C 764.214844 443.121094 809.292969 437.148438 825.121094 381.300781 C 830.851562 361.097656 773.875 431.011719 773.875 431.011719 "/>
</g>
</svg>
